<!DOCTYPE svg PUBLIC "-//W3C//DTD SVG 1.1//EN" "http://www.w3.org/Graphics/SVG/1.1/DTD/svg11.dtd">

<!-- Uploaded to: SVG Repo, www.svgrepo.com, Transformed by: SVG Repo Mixer Tools -->
<svg width="800px" height="800px" viewBox="-6 -6 52.00 52.00" xmlns="http://www.w3.org/2000/svg" fill="#000000"
    stroke="#000000" stroke-width="0.0004" transform="rotate(0)">

    <g id="SVGRepo_bgCarrier" stroke-width="0" transform="translate(0,0), scale(1)">

        <rect x="-6" y="-6" width="52.00" height="52.00" rx="26" fill="#000000" strokewidth="0" />

    </g>

    <g id="SVGRepo_tracerCarrier" stroke-linecap="round" stroke-linejoin="round" stroke="#CCCCCC" stroke-width="0.32" />

    <g id="SVGRepo_iconCarrier">
        <g id="Group_6" data-name="Group 6" transform="translate(-325 -202.803)">
            <path id="Path_10" data-name="Path 10"
                d="M359,211h-2v-4c0-2.2-1.4-2.9-3.1-1.4l-6.5,5.4h-4.8l-6.5-5.4c-1.7-1.4-3.1-.8-3.1,1.4v4h-2a6,6,0,0,0,0,12h.4l1.3,6.4A6.694,6.694,0,0,0,331,234a6.957,6.957,0,0,0,7,7h14a6.957,6.957,0,0,0,7-7,7.069,7.069,0,0,0-1.7-4.6l1.3-6.4h.4a6,6,0,0,0,0-12Zm-7,16H336.3l-.8-4H337a2,2,0,0,0,0-4h-2.2a4.457,4.457,0,0,1,.8-2.6A4.154,4.154,0,0,1,339,215h12a4.293,4.293,0,0,1,3.4,1.4,3.849,3.849,0,0,1,.8,2.6H353a2,2,0,0,0,0,4h1.5l-.8,4Zm-23-10a2.006,2.006,0,0,1,2-2h.8a8.77,8.77,0,0,0-1,4h0A2.046,2.046,0,0,1,329,217Zm23,20h-1v-2a2,2,0,0,0-4,0v2h-4v-2a2,2,0,0,0-4,0v2h-1a3,3,0,0,1,0-6h14a3,3,0,0,1,0,6Zm7.2-18h0a7.674,7.674,0,0,0-1-4h.8a2.006,2.006,0,0,1,2,2A2.046,2.046,0,0,1,359.2,219Z"
                fill="#ffffff" />
        </g>
    </g>

</svg>